<?xml version="1.0" encoding="UTF-8" standalone="no"?>
<svg
   xmlns:dc="http://purl.org/dc/elements/1.1/"
   xmlns:cc="http://creativecommons.org/ns#"
   xmlns:rdf="http://www.w3.org/1999/02/22-rdf-syntax-ns#"
   xmlns:svg="http://www.w3.org/2000/svg"
   xmlns="http://www.w3.org/2000/svg"
   xmlns:sodipodi="http://sodipodi.sourceforge.net/DTD/sodipodi-0.dtd"
   xmlns:inkscape="http://www.inkscape.org/namespaces/inkscape"
   version="1.1"
   id="svg2"
   xml:space="preserve"
   width="400"
   height="400"
   viewBox="0 0 400 400"
   sodipodi:docname="kyrgyzstan-flag-round.ai"><metadata
     id="metadata8"><rdf:RDF><cc:Work
         rdf:about=""><dc:format>image/svg+xml</dc:format><dc:type
           rdf:resource="http://purl.org/dc/dcmitype/StillImage" /></cc:Work></rdf:RDF></metadata><defs
     id="defs6"><clipPath
       clipPathUnits="userSpaceOnUse"
       id="clipPath18"><path
         d="M 150,300 C 67.157,300 0,232.843 0,150 v 0 C 0,67.157 67.157,0 150,0 v 0 c 82.843,0 150,67.157 150,150 v 0 c 0,82.843 -67.157,150 -150,150 z"
         id="path16" /></clipPath><clipPath
       clipPathUnits="userSpaceOnUse"
       id="clipPath200"><path
         d="m 109.402,152.647 c 0,-22.857 18.329,-41.388 40.938,-41.388 v 0 c 22.609,0 40.937,18.531 40.937,41.388 v 0 c 0,22.858 -18.328,41.388 -40.937,41.388 v 0 c -22.609,0 -40.938,-18.53 -40.938,-41.388"
         id="path198" /></clipPath></defs><sodipodi:namedview
     pagecolor="#ffffff"
     bordercolor="#666666"
     borderopacity="1"
     objecttolerance="10"
     gridtolerance="10"
     guidetolerance="10"
     inkscape:pageopacity="0"
     inkscape:pageshadow="2"
     inkscape:window-width="640"
     inkscape:window-height="480"
     id="namedview4" /><g
     id="g10"
     inkscape:groupmode="layer"
     inkscape:label="kyrgyzstan-flag-round"
     transform="matrix(1.3333333,0,0,-1.3333333,0,400)"><g
       id="g12"><g
         id="g14"
         clip-path="url(#clipPath18)"><path
           d="M -100,300 H 400 V 0 h -500 z"
           style="fill:#e8112d;fill-opacity:1;fill-rule:nonzero;stroke:none"
           id="path20" /><g
           id="g22"
           transform="translate(154.5396,203.6973)"><path
             d="M 0,0 C -4.2,11 4.8,28 -4.2,36 -1.2,24 -11.2,11 -8.4,0 -5.6,-11 4.2,-11 0,0"
             style="fill:#ffef00;fill-opacity:1;fill-rule:nonzero;stroke:none"
             id="path24" /></g><g
           id="g26"
           transform="translate(162.9355,202.3755)"><path
             d="M 0,0 C -2.428,11.521 9.121,26.904 1.483,36.214 2.569,23.892 -9.341,12.617 -8.297,1.314 -7.252,-9.989 2.427,-11.521 0,0"
             style="fill:#ffef00;fill-opacity:1;fill-rule:nonzero;stroke:none"
             id="path28" /></g><g
           id="g30"
           transform="translate(171.021,199.7563)"><path
             d="M 0,0 C -0.595,11.76 13.218,25.146 7.13,35.536 6.275,23.196 -7.252,13.923 -7.989,2.596 -8.725,-8.731 0.595,-11.759 0,0"
             style="fill:#ffef00;fill-opacity:1;fill-rule:nonzero;stroke:none"
             id="path32" /></g><g
           id="g34"
           transform="translate(178.5976,195.9048)"><path
             d="M 0,0 C 1.251,11.708 16.988,22.769 12.601,33.983 9.826,21.929 -4.985,14.886 -7.485,3.813 -9.984,-7.259 -1.252,-11.708 0,0"
             style="fill:#ffef00;fill-opacity:1;fill-rule:nonzero;stroke:none"
             id="path36" /></g><g
           id="g38"
           transform="translate(185.478,190.9155)"><path
             d="M 0,0 C 3.068,11.368 20.341,19.831 17.762,31.593 13.136,20.122 -2.595,15.482 -6.796,4.937 -10.996,-5.607 -3.068,-11.368 0,0"
             style="fill:#ffef00;fill-opacity:1;fill-rule:nonzero;stroke:none"
             id="path40" /></g><g
           id="g42"
           transform="translate(191.4931,184.9111)"><path
             d="M 0,0 C 4.809,10.748 23.193,16.405 22.486,28.426 16.122,17.819 -0.141,15.698 -5.939,5.94 -11.738,-3.818 -4.808,-10.748 0,0"
             style="fill:#ffef00;fill-opacity:1;fill-rule:nonzero;stroke:none"
             id="path44" /></g><g
           id="g46"
           transform="translate(196.4951,178.0396)"><path
             d="M 0,0 C 6.431,9.864 25.474,12.575 26.656,24.559 18.711,15.078 2.316,15.527 -4.937,6.796 -12.19,-1.935 -6.43,-9.863 0,0"
             style="fill:#ffef00;fill-opacity:1;fill-rule:nonzero;stroke:none"
             id="path48" /></g><g
           id="g50"
           transform="translate(200.3608,170.4707)"><path
             d="M 0,0 C 7.895,8.736 27.127,8.435 30.169,20.085 20.839,11.965 4.716,14.973 -3.813,7.484 -12.343,-0.004 -7.895,-8.736 0,0"
             style="fill:#ffef00;fill-opacity:1;fill-rule:nonzero;stroke:none"
             id="path52" /></g><g
           id="g54"
           transform="translate(202.9946,162.3896)"><path
             d="M 0,0 C 9.164,7.394 28.113,4.087 32.94,15.119 22.455,8.558 7,14.051 -2.596,7.989 -12.192,1.927 -9.164,-7.394 0,0"
             style="fill:#ffef00;fill-opacity:1;fill-rule:nonzero;stroke:none"
             id="path56" /></g><g
           id="g58"
           transform="translate(204.332,153.9966)"><path
             d="M 0,0 C 10.208,5.869 28.406,-0.361 34.899,9.78 23.517,4.939 9.112,12.783 -1.314,8.296 -11.741,3.81 -10.208,-5.869 0,0"
             style="fill:#ffef00;fill-opacity:1;fill-rule:nonzero;stroke:none"
             id="path60" /></g><g
           id="g62"
           transform="translate(204.3398,145.497)"><path
             d="M 0,0 C 11,4.2 28,-4.8 36,4.2 24,1.2 11,11.2 0,8.4 -11,5.6 -11,-4.2 0,0"
             style="fill:#ffef00;fill-opacity:1;fill-rule:nonzero;stroke:none"
             id="path64" /></g><g
           id="g66"
           transform="translate(203.0181,137.1015)"><path
             d="M 0,0 C 11.521,2.427 26.904,-9.121 36.213,-1.483 23.892,-2.569 12.617,9.341 1.314,8.296 -9.989,7.252 -11.522,-2.428 0,0"
             style="fill:#ffef00;fill-opacity:1;fill-rule:nonzero;stroke:none"
             id="path68" /></g><g
           id="g70"
           transform="translate(200.3989,129.0161)"><path
             d="M 0,0 C 11.759,0.595 25.146,-13.218 35.536,-7.13 23.196,-6.275 13.922,7.252 2.596,7.989 -8.731,8.725 -11.759,-0.596 0,0"
             style="fill:#ffef00;fill-opacity:1;fill-rule:nonzero;stroke:none"
             id="path72" /></g><g
           id="g74"
           transform="translate(196.5473,121.4395)"><path
             d="M 0,0 C 11.708,-1.251 22.769,-16.988 33.983,-12.602 21.929,-9.827 14.886,4.985 3.813,7.484 -7.259,9.983 -11.708,1.252 0,0"
             style="fill:#ffef00;fill-opacity:1;fill-rule:nonzero;stroke:none"
             id="path76" /></g><g
           id="g78"
           transform="translate(191.5581,114.5591)"><path
             d="M 0,0 C 11.368,-3.068 19.831,-20.341 31.593,-17.763 20.122,-13.136 15.482,2.595 4.937,6.795 -5.608,10.996 -11.368,3.068 0,0"
             style="fill:#ffef00;fill-opacity:1;fill-rule:nonzero;stroke:none"
             id="path80" /></g><g
           id="g82"
           transform="translate(185.5537,108.5435)"><path
             d="M 0,0 C 10.748,-4.808 16.405,-23.193 28.426,-22.486 17.819,-16.122 15.698,0.142 5.939,5.94 -3.818,11.738 -10.748,4.809 0,0"
             style="fill:#ffef00;fill-opacity:1;fill-rule:nonzero;stroke:none"
             id="path84" /></g><g
           id="g86"
           transform="translate(178.6821,103.5415)"><path
             d="M 0,0 C 9.864,-6.43 12.575,-25.474 24.558,-26.656 15.078,-18.711 15.527,-2.316 6.796,4.937 -1.935,12.191 -9.863,6.431 0,0"
             style="fill:#ffef00;fill-opacity:1;fill-rule:nonzero;stroke:none"
             id="path88" /></g><g
           id="g90"
           transform="translate(171.1128,99.6763)"><path
             d="M 0,0 C 8.736,-7.895 8.435,-27.127 20.086,-30.17 11.965,-20.839 14.973,-4.716 7.485,3.813 -0.004,12.343 -8.736,7.894 0,0"
             style="fill:#ffef00;fill-opacity:1;fill-rule:nonzero;stroke:none"
             id="path92" /></g><g
           id="g94"
           transform="translate(163.0322,97.0425)"><path
             d="M 0,0 C 7.394,-9.164 4.087,-28.113 15.119,-32.94 8.558,-22.455 14.051,-7.001 7.989,2.596 1.927,12.192 -7.394,9.164 0,0"
             style="fill:#ffef00;fill-opacity:1;fill-rule:nonzero;stroke:none"
             id="path96" /></g><g
           id="g98"
           transform="translate(154.6386,95.7051)"><path
             d="M 0,0 C 5.869,-10.208 -0.36,-28.406 9.78,-34.9 4.94,-23.517 12.783,-9.113 8.297,1.314 3.811,11.741 -5.869,10.208 0,0"
             style="fill:#ffef00;fill-opacity:1;fill-rule:nonzero;stroke:none"
             id="path100" /></g><g
           id="g102"
           transform="translate(146.1396,95.6973)"><path
             d="m 0,0 c 4.2,-11 -4.8,-28 4.2,-36 -3,12 7,25 4.2,36 C 5.6,11 -4.2,11 0,0"
             style="fill:#ffef00;fill-opacity:1;fill-rule:nonzero;stroke:none"
             id="path104" /></g><g
           id="g106"
           transform="translate(137.7441,97.019)"><path
             d="m 0,0 c 2.427,-11.521 -9.121,-26.904 -1.483,-36.214 -1.086,12.322 10.824,23.597 9.779,34.9 C 7.251,9.989 -2.428,11.521 0,0"
             style="fill:#ffef00;fill-opacity:1;fill-rule:nonzero;stroke:none"
             id="path108" /></g><g
           id="g110"
           transform="translate(129.6582,99.6382)"><path
             d="m 0,0 c 0.595,-11.76 -13.217,-25.146 -7.13,-35.536 0.855,12.34 14.383,21.613 15.119,32.94 C 8.725,8.731 -0.595,11.759 0,0"
             style="fill:#ffef00;fill-opacity:1;fill-rule:nonzero;stroke:none"
             id="path112" /></g><g
           id="g114"
           transform="translate(122.082,103.4897)"><path
             d="M 0,0 C -1.251,-11.708 -16.989,-22.769 -12.602,-33.983 -9.827,-21.929 4.985,-14.886 7.484,-3.813 9.983,7.259 1.251,11.708 0,0"
             style="fill:#ffef00;fill-opacity:1;fill-rule:nonzero;stroke:none"
             id="path116" /></g><g
           id="g118"
           transform="translate(115.2016,108.479)"><path
             d="M 0,0 C -3.068,-11.368 -20.341,-19.831 -17.763,-31.593 -13.136,-20.122 2.595,-15.482 6.795,-4.937 10.996,5.607 3.067,11.368 0,0"
             style="fill:#ffef00;fill-opacity:1;fill-rule:nonzero;stroke:none"
             id="path120" /></g><g
           id="g122"
           transform="translate(109.1861,114.4834)"><path
             d="M 0,0 C -4.808,-10.748 -23.193,-16.405 -22.486,-28.426 -16.122,-17.819 0.142,-15.698 5.94,-5.94 11.738,3.818 4.809,10.748 0,0"
             style="fill:#ffef00;fill-opacity:1;fill-rule:nonzero;stroke:none"
             id="path124" /></g><g
           id="g126"
           transform="translate(104.1841,121.3545)"><path
             d="m 0,0 c -6.431,-9.863 -25.474,-12.575 -26.656,-24.558 7.945,9.48 24.34,9.032 31.593,17.763 C 12.191,1.936 6.431,9.864 0,0"
             style="fill:#ffef00;fill-opacity:1;fill-rule:nonzero;stroke:none"
             id="path128" /></g><g
           id="g130"
           transform="translate(100.3183,128.9238)"><path
             d="m 0,0 c -7.894,-8.736 -27.127,-8.435 -30.169,-20.086 9.33,8.121 25.453,5.113 33.983,12.602 C 12.344,0.004 7.895,8.736 0,0"
             style="fill:#ffef00;fill-opacity:1;fill-rule:nonzero;stroke:none"
             id="path132" /></g><g
           id="g134"
           transform="translate(97.6846,137.0049)"><path
             d="M 0,0 C -9.164,-7.394 -28.113,-4.087 -32.94,-15.119 -22.454,-8.558 -7,-14.051 2.596,-7.989 12.192,-1.927 9.164,7.394 0,0"
             style="fill:#ffef00;fill-opacity:1;fill-rule:nonzero;stroke:none"
             id="path136" /></g><g
           id="g138"
           transform="translate(96.3477,145.3979)"><path
             d="m 0,0 c -10.208,-5.869 -28.406,0.361 -34.9,-9.78 11.383,4.841 25.787,-3.003 36.214,1.484 C 11.74,-3.81 10.208,5.869 0,0"
             style="fill:#ffef00;fill-opacity:1;fill-rule:nonzero;stroke:none"
             id="path140" /></g><g
           id="g142"
           transform="translate(96.3398,153.8974)"><path
             d="m 0,0 c -11,-4.2 -28,4.8 -36,-4.2 12,3 25,-7 36,-4.2 11,2.8 11,12.6 0,8.4"
             style="fill:#ffef00;fill-opacity:1;fill-rule:nonzero;stroke:none"
             id="path144" /></g><g
           id="g146"
           transform="translate(97.6616,162.2929)"><path
             d="m 0,0 c -11.521,-2.427 -26.904,9.121 -36.214,1.483 12.322,1.086 23.597,-10.824 34.9,-9.779 C 9.988,-7.252 11.521,2.428 0,0"
             style="fill:#ffef00;fill-opacity:1;fill-rule:nonzero;stroke:none"
             id="path148" /></g><g
           id="g150"
           transform="translate(100.2807,170.3784)"><path
             d="M 0,0 C -11.76,-0.595 -25.146,13.218 -35.536,7.13 -23.196,6.275 -13.923,-7.252 -2.596,-7.989 8.731,-8.725 11.759,0.595 0,0"
             style="fill:#ffef00;fill-opacity:1;fill-rule:nonzero;stroke:none"
             id="path152" /></g><g
           id="g154"
           transform="translate(104.1323,177.9551)"><path
             d="M 0,0 C -11.708,1.251 -22.769,16.988 -33.983,12.601 -21.929,9.827 -14.886,-4.985 -3.814,-7.484 7.258,-9.984 11.708,-1.252 0,0"
             style="fill:#ffef00;fill-opacity:1;fill-rule:nonzero;stroke:none"
             id="path156" /></g><g
           id="g158"
           transform="translate(109.1216,184.8354)"><path
             d="M 0,0 C -11.368,3.068 -19.831,20.341 -31.593,17.763 -20.122,13.136 -15.482,-2.595 -4.937,-6.796 5.607,-10.996 11.368,-3.068 0,0"
             style="fill:#ffef00;fill-opacity:1;fill-rule:nonzero;stroke:none"
             id="path160" /></g><g
           id="g162"
           transform="translate(115.126,190.851)"><path
             d="M 0,0 C -10.748,4.808 -16.405,23.193 -28.426,22.486 -17.819,16.122 -15.698,-0.142 -5.94,-5.94 3.818,-11.738 10.748,-4.809 0,0"
             style="fill:#ffef00;fill-opacity:1;fill-rule:nonzero;stroke:none"
             id="path164" /></g><g
           id="g166"
           transform="translate(121.9971,195.853)"><path
             d="m 0,0 c -9.863,6.43 -12.575,25.474 -24.558,26.656 9.48,-7.945 9.032,-24.34 17.763,-31.593 C 1.935,-12.191 9.864,-6.431 0,0"
             style="fill:#ffef00;fill-opacity:1;fill-rule:nonzero;stroke:none"
             id="path168" /></g><g
           id="g170"
           transform="translate(129.5664,199.7182)"><path
             d="M 0,0 C -8.736,7.895 -8.435,27.127 -20.086,30.169 -11.965,20.839 -14.973,4.716 -7.484,-3.813 0.004,-12.343 8.736,-7.894 0,0"
             style="fill:#ffef00;fill-opacity:1;fill-rule:nonzero;stroke:none"
             id="path172" /></g><g
           id="g174"
           transform="translate(137.6474,202.3521)"><path
             d="M 0,0 C -7.394,9.164 -4.087,28.113 -15.119,32.94 -8.558,22.455 -14.051,7.001 -7.989,-2.596 -1.927,-12.192 7.394,-9.164 0,0"
             style="fill:#ffef00;fill-opacity:1;fill-rule:nonzero;stroke:none"
             id="path176" /></g><g
           id="g178"
           transform="translate(146.0405,203.6894)"><path
             d="M 0,0 C -5.869,10.208 0.361,28.406 -9.78,34.9 -4.939,23.517 -12.783,9.112 -8.296,-1.314 -3.81,-11.741 5.869,-10.207 0,0"
             style="fill:#ffef00;fill-opacity:1;fill-rule:nonzero;stroke:none"
             id="path180" /></g><g
           id="g182"
           transform="translate(150.3398,203.6973)"><path
             d="m 0,0 c 29.823,0 54,-24.177 54,-54 0,-29.823 -24.177,-54 -54,-54 -29.824,0 -54,24.177 -54,54 0,29.823 24.176,54 54,54"
             style="fill:#e8112d;fill-opacity:1;fill-rule:nonzero;stroke:none"
             id="path184" /></g><g
           id="g186"
           transform="translate(203.498,150.5078)"><path
             d="m 0,0 c 0.004,-29.327 -23.766,-53.104 -53.093,-53.108 -29.326,-0.005 -53.104,23.766 -53.108,53.092 V 0 c -0.005,29.327 23.766,53.104 53.093,53.108 C -23.782,53.113 -0.004,29.342 0,0.016 Z"
             style="fill:none;stroke:#ffef00;stroke-width:4;stroke-linecap:round;stroke-linejoin:round;stroke-miterlimit:4;stroke-dasharray:none;stroke-opacity:1"
             id="path188" /></g><g
           id="g190"
           transform="translate(150.3398,193.1352)"><path
             d="m 0,0 c 22.118,0 40.048,-18.127 40.048,-40.488 0,-22.361 -17.93,-40.488 -40.048,-40.488 -22.118,0 -40.048,18.127 -40.048,40.488 C -40.048,-18.127 -22.118,0 0,0"
             style="fill:#ffef00;fill-opacity:1;fill-rule:nonzero;stroke:none"
             id="path192" /></g></g></g><g
       id="g194"><g
         id="g196"
         clip-path="url(#clipPath200)"><g
           id="g202"
           transform="translate(190.3877,174.8164)"><path
             d="m 0,0 c -31.279,0 -56.636,-25.636 -56.636,-57.259 0,-31.623 25.357,-57.259 56.636,-57.259 l -3.204,-2.217 c -32.491,0 -58.83,26.628 -58.83,59.476 0,32.848 26.339,59.477 58.83,59.477 z"
             style="fill:#e8112d;fill-opacity:1;fill-rule:nonzero;stroke:none"
             id="path204" /></g><g
           id="g206"
           transform="translate(185.0479,178.6035)"><path
             d="m 0,0 c -33.348,0 -60.382,-27.331 -60.382,-61.046 0,-33.715 27.034,-61.046 60.382,-61.046 l -3.204,-2.477 c -34.701,0 -62.833,28.44 -62.833,63.523 0,35.083 28.132,63.524 62.833,63.524 z"
             style="fill:#e8112d;fill-opacity:1;fill-rule:nonzero;stroke:none"
             id="path208" /></g><g
           id="g210"
           transform="translate(179.708,182.8071)"><path
             d="m 0,0 c -35.645,0 -64.54,-29.213 -64.54,-65.25 0,-36.036 28.895,-65.249 64.54,-65.249 l -3.204,-2.69 c -37.113,0 -67.2,30.418 -67.2,67.939 0,37.522 30.087,67.939 67.2,67.939 z"
             style="fill:#e8112d;fill-opacity:1;fill-rule:nonzero;stroke:none"
             id="path212" /></g><g
           id="g214"
           transform="translate(110.292,174.8164)"><path
             d="m 0,0 c 31.279,0 56.636,-25.636 56.636,-57.259 0,-31.623 -25.357,-57.259 -56.636,-57.259 l 3.204,-2.217 c 32.491,0 58.83,26.628 58.83,59.476 0,32.848 -26.339,59.477 -58.83,59.477 z"
             style="fill:#e8112d;fill-opacity:1;fill-rule:nonzero;stroke:none"
             id="path216" /></g><g
           id="g218"
           transform="translate(115.6313,178.6035)"><path
             d="m 0,0 c 33.349,0 60.383,-27.331 60.383,-61.046 0,-33.715 -27.034,-61.046 -60.383,-61.046 l 3.204,-2.477 c 34.702,0 62.833,28.44 62.833,63.523 0,35.083 -28.131,63.524 -62.833,63.524 z"
             style="fill:#e8112d;fill-opacity:1;fill-rule:nonzero;stroke:none"
             id="path220" /></g><g
           id="g222"
           transform="translate(120.9712,182.8071)"><path
             d="m 0,0 c 35.644,0 64.54,-29.213 64.54,-65.25 0,-36.036 -28.896,-65.249 -64.54,-65.249 l 3.204,-2.69 c 37.114,0 67.201,30.418 67.201,67.939 0,37.522 -30.087,67.939 -67.201,67.939 z"
             style="fill:#e8112d;fill-opacity:1;fill-rule:nonzero;stroke:none"
             id="path224" /></g></g></g></g></svg>
